<?xml version="1.0" encoding="utf-8"?>
<!-- Generator: Adobe Illustrator 15.1.0, SVG Export Plug-In . SVG Version: 6.00 Build 0)  -->
<!DOCTYPE svg PUBLIC "-//W3C//DTD SVG 1.1//EN" "http://www.w3.org/Graphics/SVG/1.1/DTD/svg11.dtd">
<svg version="1.1" id="Layer_1" xmlns="http://www.w3.org/2000/svg" xmlns:xlink="http://www.w3.org/1999/xlink" x="0px" y="0px"
	 width="1500px" height="675px" viewBox="-599.5 412.5 1500 675" style="enable-background:new -599.5 412.5 1500 675;"
	 xml:space="preserve">
<style type="text/css">
<![CDATA[
	.st0{fill:#FFFFFF;}
]]>
</style>
<polygon id="leftBottom_1_" class="st0" points="-147.887,528.334 -171.982,528.334 -183.5,539.35 -183.5,539.5 -136.212,539.5 "/>
<polygon id="leftBottomLeft_1_" class="st0" points="-173.333,506.388 -178.464,501.48 -183.5,506.297 -183.5,537.966 
	-173.333,528.242 "/>
<polygon id="leftTopLeft_1_" class="st0" points="-173.333,495.189 -173.333,473.513 -183.5,463.79 -183.5,495.281 
	-178.464,500.098 "/>
<polygon id="leftMiddle_1_" class="st0" points="-172.56,495.834 -177.741,500.789 -172.641,505.667 -147.05,505.667 
	-142.039,500.874 -147.309,495.834 "/>
<polygon id="leftBottomRight_1_" class="st0" points="-146.167,528.334 -135.5,538.797 -135.5,507.129 -141.315,501.566 
	-146.167,506.206 "/>
<polygon id="leftTopRight_1_" class="st0" points="-135.5,462.958 -146.174,473.167 -146.167,473.167 -146.167,495.543 
	-141.315,500.183 -135.5,494.62 "/>
<polygon id="leftTop_2_" class="st0" points="-147.621,473.167 -136.468,462.5 -183.401,462.5 -172.249,473.167 "/>
</svg>
